<?xml version="1.0" encoding="utf-8"?>
<!-- Svg Vector Icons : http://www.onlinewebfonts.com/icon -->
<!DOCTYPE svg PUBLIC "-//W3C//DTD SVG 1.1//EN" "http://www.w3.org/Graphics/SVG/1.1/DTD/svg11.dtd">
<svg version="1.1" xmlns="http://www.w3.org/2000/svg" xmlns:xlink="http://www.w3.org/1999/xlink" x="0px" y="0px" viewBox="0 0 1000 1000" enable-background="new 0 0 1000 1000" xml:space="preserve">
<metadata> Svg Vector Icons : http://www.onlinewebfonts.com/icon </metadata>
<g><g transform="translate(0.000000,511.000000) scale(0.100000,-0.100000)"><path d="M1597.3,4972.2c-482.4-117.3-941.3-500.6-1170.7-983c-156.4-325.9-208.6-558-208.6-943.9c0-385.9,39.1-584.1,185.1-899.6c96.5-213.8,1541-2404,1577.5-2393.6c10.4,5.2,101.7,130.4,200.8,279c198.2,294.7,182.5,292.1,232.1,41.7c10.4-57.4,31.3-104.3,44.3-104.3c15.6,2.6,101.7,10.4,192.9,23.4l166.9,20.9L2799.3,211c-7.8,106.9-18.3,200.8-23.5,203.4c-2.6,5.2-83.4-2.6-174.7-15.6c-91.3-13-169.5-20.9-172.1-18.3c-5.2,2.6,221.6,352,500.6,774.4c576.3,870.9,636.2,977.8,727.5,1290.7c320.7,1113.4-312.9,2310.2-1342.8,2531.8C2100.5,5021.7,1798.1,5021.7,1597.3,4972.2z M2410.8,4077.8c281.6-151.2,479.8-414.6,568.4-750.9c138.2-529.3-119.9-1102.9-604.9-1342.8c-159-78.2-198.2-86-398.9-86c-195.6,0-242.5,10.4-398.9,83.4c-782.2,370.2-863.1,1541-138.2,2039c182.5,125.2,315.5,161.7,576.2,151.2C2223.1,4163.9,2267.4,4153.4,2410.8,4077.8z"/><path d="M7685.6,461.3c-404.1-86-829.2-385.9-1082.1-766.6c-404.2-607.5-458.9-1462.8-133-2109.4c49.5-99.1,219-375.5,378.1-610.1c159.1-237.3,398.9-604.9,537.1-816.1l250.3-383.3l-153.8,15.6l-156.4,15.7l-13-83.4c-7.8-44.3-23.5-138.2-33.9-206c-15.7-125.2-15.7-125.2,57.3-125.2c41.7,0,138.2-7.8,213.8-15.6l135.6-18.3l2.6,88.7c5.2,221.6,26.1,219,179.9-15.6c78.2-122.5,148.6-221.6,156.4-221.6c33.9,2.6,1496.7,2255.4,1574.9,2424.9c138.2,307.7,182.5,513.7,182.5,886.5c0,398.9-60,657.1-239.9,1003.8c-169.5,331.2-474.5,636.2-787.4,790C8394.8,492.6,8050.7,542.2,7685.6,461.3z M8423.5-417.4c315.5-143.4,565.8-495.4,625.8-881.3c78.2-500.6-187.7-1027.3-620.5-1235.9c-138.2-67.8-185.1-75.6-404.2-78.2c-221.6,0-263.3,7.8-404.1,75.6c-477.2,234.7-737.9,821.3-599.7,1353.3c101.7,393.7,352,680.5,698.8,805.7C7917.7-307.9,8222.8-323.5,8423.5-417.4z"/><path d="M3226.9,218.8V15.5l138.2-15.6c73-7.8,151.2-18.3,169.5-23.5c39.1-7.8,148.6,299.8,127.8,354.6c-13,33.9-258.1,93.9-375.5,93.9C3229.6,424.8,3226.9,417,3226.9,218.8z"/><path d="M4009.2-28.9l-106.9-166.9l119.9-122.5l122.6-120l140.8,109.5c78.2,60,148.6,120,156.5,130.4c15.6,26.1-151.2,213.8-250.3,284.2l-73,52.1L4009.2-28.9z"/><path d="M4525.4-678.1c-99.1-41.7-177.3-91.3-177.3-106.9c0-57.4,117.3-328.5,146-328.5c13,0,99.1,26.1,190.3,54.7c185.1,62.6,185.1,60,73,323.3l-57.4,135.6L4525.4-678.1z"/><path d="M4749.7-1481.2l-159.1-49.5l52.1-187.7c26.1-104.3,52.2-193,54.8-195.6c7.8-10.4,359.8,91.3,372.8,106.9c7.9,7.8-7.8,93.9-33.9,195.6C4981.7-1403,4989.6-1405.6,4749.7-1481.2z"/><path d="M5020.8-2271.2c-96.5-31.3-179.9-62.6-187.7-70.4c-15.6-15.6,83.4-333.8,112.1-370.2c10.4-10.4,101.7,13,203.4,49.5l185.1,67.8l-60,161.6c-31.3,86.1-62.6,172.1-67.8,187.7C5198.2-2229.5,5133-2237.4,5020.8-2271.2z"/><path d="M5305-3058.7l-177.3-91.3l67.8-122.5c36.5-67.8,88.6-151.3,114.7-185.1l49.5-62.6l138.2,99.1c78.2,54.7,151.2,109.5,161.6,117.3c15.7,13-153.8,344.2-174.7,339C5485-2967.4,5401.5-3009.1,5305-3058.7z"/><path d="M5787.4-3728.8L5651.9-3867l83.4-78.2c106.9-99.1,229.5-193,255.5-193c18.2,0,200.7,263.3,213.8,307.7c7.8,20.8-245.1,239.9-273.8,239.9C5928.2-3590.6,5863-3653.2,5787.4-3728.8z"/><path d="M6499.3-4153.8c-99.1-224.3-99.1-219,101.7-286.8c101.6-33.9,190.3-62.6,200.8-62.6c10.4,0,39.1,67.8,62.6,151.2c23.5,80.8,46.9,166.9,54.7,190.3c7.9,31.3-28.7,54.8-159,99.1c-93.9,28.7-177.3,54.7-182.5,54.7C6569.6-4007.8,6535.8-4073,6499.3-4153.8z"/></g></g>
</svg>